<?xml version="1.0" encoding="UTF-8"?>
<svg version="1.1" xmlns="http://www.w3.org/2000/svg" width="391" height="397">
<path d="M0 0 C129.03 0 258.06 0 391 0 C391 131.01 391 262.02 391 397 C261.97 397 132.94 397 0 397 C0 265.99 0 134.98 0 0 Z " fill="#151621" transform="translate(0,0)"/>
<path d="M0 0 C129.03 0 258.06 0 391 0 C391 131.01 391 262.02 391 397 C261.97 397 132.94 397 0 397 C0 265.99 0 134.98 0 0 Z M167 51 C167 51.66 167 52.32 167 53 C166.39414063 53.03738281 165.78828125 53.07476562 165.1640625 53.11328125 C156.12730045 53.8223195 148.23079415 56.3045414 140 60 C139.01 60.33 138.02 60.66 137 61 C136.67 61.66 136.34 62.32 136 63 C134.66778273 63.55584575 133.30672027 64.0428313 131.9375 64.5 C116.850168 70.30115492 104.15427497 81.10609359 92.375 91.875 C91.74577637 92.44710205 91.11655273 93.0192041 90.46826172 93.60864258 C88.93871811 95.0304509 87.46394797 96.51073881 86 98 C86 98.66 86 99.32 86 100 C85.01 100.33 84.02 100.66 83 101 C80.87613059 103.24492303 80.87613059 103.24492303 78.8125 105.9375 C78.09707031 106.83339844 77.38164063 107.72929688 76.64453125 108.65234375 C74.80875443 110.79528796 74.80875443 110.79528796 75 113 C74.34 113 73.68 113 73 113 C71.60789777 114.90903232 71.60789777 114.90903232 70.25 117.375 C69.72277344 118.28636719 69.19554688 119.19773437 68.65234375 120.13671875 C67.83443359 121.55404297 67.83443359 121.55404297 67 123 C65.93933357 124.73029198 64.87690301 126.45950409 63.8125 128.1875 C61.4967967 132.03289765 59.69384383 135.85008261 58 140 C57.34 140.99 56.68 141.98 56 143 C55.56261304 144.71444889 55.19151312 146.44667784 54.875 148.1875 C54.70742188 149.08855469 54.53984375 149.98960937 54.3671875 150.91796875 C54.18542969 151.94857422 54.18542969 151.94857422 54 153 C53.34 153 52.68 153 52 153 C50.80712589 156.87684087 50 159.91621923 50 164 C49.34 164 48.68 164 48 164 C47.51712149 166.64520242 47.03863376 169.2910821 46.5625 171.9375 C46.36043945 173.04061523 46.36043945 173.04061523 46.15429688 174.16601562 C44.29127319 184.57168452 43.79723254 194.67273433 43.8125 205.25 C43.81277191 205.95498627 43.81304382 206.65997253 43.81332397 207.38632202 C43.31601676 232.36454146 43.31601676 232.36454146 50.0390625 256.046875 C51.2580851 258.5245632 51.73446073 261.08567457 52.359375 263.76171875 C53.48185701 267.68356138 55.24776187 271.32540353 57 275 C57.66 275 58.32 275 59 275 C59.09410156 275.69222656 59.18820313 276.38445312 59.28515625 277.09765625 C65.16059902 300.952596 91.09535388 325.43970531 110 339 C110.54914063 339.41765625 111.09828125 339.8353125 111.6640625 340.265625 C118.58075799 345.44495148 126.38731308 349.30046008 134.13671875 353.07421875 C135.34163736 353.672889 136.53343899 354.29906763 137.70703125 354.95703125 C144.00019891 358.39839309 150.77806285 360.41748982 157.65380859 362.33691406 C159.20886876 362.77640869 160.75895078 363.23394412 162.30322266 363.70996094 C176.44662236 368.00042629 190.33695648 368.45921632 205 368.4375 C206.40303375 368.43769638 206.40303375 368.43769638 207.83441162 368.43789673 C210.53584811 368.43111128 213.23628933 368.40583205 215.9375 368.37109375 C216.74712189 368.36550446 217.55674377 368.35991516 218.39089966 368.35415649 C223.24188448 368.25446258 227.34809253 367.52138307 232 366 C234.45621638 365.38728371 236.91468733 364.78355513 239.375 364.1875 C242.25250503 363.46803938 245.12646866 362.73514883 248 362 C248.71075684 361.82098145 249.42151367 361.64196289 250.15380859 361.45751953 C261.03412851 358.6734888 270.32084086 354.67437884 280 349 C280.87914062 348.50628906 281.75828125 348.01257813 282.6640625 347.50390625 C297.39133894 339.03692159 312.29775626 328.26395101 323 315 C323.75796875 314.12988281 323.75796875 314.12988281 324.53125 313.2421875 C327.17675041 310.51790908 327.17675041 310.51790908 328 307 C328.66 307 329.32 307 330 307 C331.83108948 304.66179287 333.52332021 302.32882751 335.1875 299.875 C335.67927734 299.15666992 336.17105469 298.43833984 336.67773438 297.69824219 C340.51282295 291.98079362 343.66227806 286.12610216 346.5625 279.890625 C348 277 348 277 349.6015625 274.88671875 C351.16467788 272.77782287 351.71762835 271.0938077 352.375 268.5625 C353.43614117 264.69572379 354.79633775 261.21621902 356.4375 257.5625 C367.39907338 229.12884299 367.71848633 186.17971458 356.625 157.4375 C356.08875 156.303125 355.5525 155.16875 355 154 C354.2213808 151.94042664 353.45151438 149.87753567 352.6875 147.8125 C350.21356837 141.310887 347.22809061 135.15666766 344 129 C343.34 129 342.68 129 342 129 C341.690625 128.05125 341.38125 127.1025 341.0625 126.125 C340.12605258 123.13919592 340.12605258 123.13919592 339 121 C338.34 121 337.68 121 337 121 C336.5978125 119.5459375 336.5978125 119.5459375 336.1875 118.0625 C335.795625 117.051875 335.40375 116.04125 335 115 C334.01 114.67 333.02 114.34 332 114 C331.62875 112.9790625 331.62875 112.9790625 331.25 111.9375 C329.68228183 108.25336231 327.39967983 105.85103431 324.72265625 102.91015625 C323 101 323 101 321.0625 98.4375 C312.69221076 88.54533999 300.69816534 80.25432509 290 73 C289.34 73 288.68 73 288 73 C288 72.34 288 71.68 288 71 C283.7362719 68.64089647 283.7362719 68.64089647 279 68 C278.67 67.01 278.34 66.02 278 65 C275.66446118 63.85606262 273.42823435 62.89934605 271 62 C269.80375 61.54625 268.6075 61.0925 267.375 60.625 C266.70210937 60.38007812 266.02921875 60.13515625 265.3359375 59.8828125 C263.59798798 59.22599546 261.87612343 58.52629996 260.1640625 57.8046875 C252.54669873 54.66370047 245.22515859 52.89625548 237.140625 51.578125 C234 51 234 51 233 50 C223.33765552 48.074705 213.76784044 47.64782403 203.9375 47.6875 C203.27233368 47.68766113 202.60716736 47.68782227 201.92184448 47.68798828 C190.08220769 47.70781335 178.63162325 48.821502 167 51 Z " fill="#131521" transform="translate(0,0)"/>
<path d="M0 0 C1.2775415 -0.00515625 2.55508301 -0.0103125 3.87133789 -0.015625 C14.81981497 0.06355298 25.59345525 0.97606667 36.0625 4.3125 C37.9941582 4.78113879 39.92587805 5.24960857 41.86010742 5.70751953 C48.87184625 7.37783076 55.44997458 9.40347773 62.0625 12.3125 C62.8875 12.63734375 63.7125 12.9621875 64.5625 13.296875 C66.89899728 14.24607702 69.12795444 15.29493446 71.375 16.4375 C72.42107422 16.96730469 72.42107422 16.96730469 73.48828125 17.5078125 C74.00777344 17.77335937 74.52726563 18.03890625 75.0625 18.3125 C75.0625 18.9725 75.0625 19.6325 75.0625 20.3125 C75.805 20.43625 76.5475 20.56 77.3125 20.6875 C79.86391485 21.26736701 81.7892573 22.04958739 84.0625 23.3125 C84.0625 23.9725 84.0625 24.6325 84.0625 25.3125 C85.11050781 25.66828125 85.11050781 25.66828125 86.1796875 26.03125 C89.55871076 27.53303812 92.30260846 29.54151686 95.1875 31.8125 C96.03248047 32.47028442 96.03248047 32.47028442 96.89453125 33.14135742 C104.39526367 39.05450505 111.32750095 45.54480677 118.0625 52.3125 C119.00996094 53.22515625 119.00996094 53.22515625 119.9765625 54.15625 C123.22561985 57.3014562 126.06050019 60.19073569 128.0625 64.3125 C128.0625 64.9725 128.0625 65.6325 128.0625 66.3125 C129.0525 66.6425 130.0425 66.9725 131.0625 67.3125 C132.25 70.375 132.25 70.375 133.0625 73.3125 C133.7225 73.3125 134.3825 73.3125 135.0625 73.3125 C138.0625 79.0625 138.0625 79.0625 138.0625 81.3125 C138.7225 81.3125 139.3825 81.3125 140.0625 81.3125 C147.27709805 96.51179364 147.27709805 96.51179364 150.23046875 104.203125 C150.94842849 106.02330462 151.77718993 107.79905504 152.625 109.5625 C165.01226769 138.57832811 162.91740649 184.04030183 151.4375 212.625 C150.33782936 215.19923568 149.19790133 217.75365217 148.0625 220.3125 C147.72605469 221.33730469 147.38960938 222.36210937 147.04296875 223.41796875 C143.40771271 234.14993976 136.28511848 243.91531091 130.0625 253.3125 C129.70333496 253.88758301 129.34416992 254.46266602 128.97412109 255.05517578 C128.05418287 256.50759789 127.06378606 257.91491546 126.0625 259.3125 C125.4025 259.3125 124.7425 259.3125 124.0625 259.3125 C123.67191406 260.18068359 123.67191406 260.18068359 123.2734375 261.06640625 C121.98057675 263.46445442 120.51524925 265.23468697 118.6875 267.25 C116.75751341 269.3882891 114.90916996 271.51192312 113.15234375 273.796875 C104.30648343 284.44497602 90.92800034 292.41132944 79.0625 299.3125 C77.39538321 300.33259807 75.72871786 301.35343429 74.0625 302.375 C64.29177958 308.17683864 55.13376179 311.63619354 44.0625 314.3125 C41.92388955 314.84395699 39.78635495 315.37958545 37.64892578 315.91577148 C35.67343765 316.4097591 33.69614218 316.89650263 31.71875 317.3828125 C29.42644377 317.96568524 27.14830922 318.61170126 24.90039062 319.34741211 C20.49770056 320.45452622 16.51699722 320.65241027 12 320.68359375 C11.13937958 320.69466156 10.27875916 320.70572937 9.39205933 320.71713257 C6.61535811 320.74402654 3.83932573 320.75038867 1.0625 320.75 C0.11731506 320.75139984 -0.82786987 320.75279968 -1.80169678 320.75424194 C-16.4209776 320.73638742 -29.89813178 319.64008987 -43.9375 315.3125 C-45.48498457 314.8751464 -47.03315063 314.440196 -48.58203125 314.0078125 C-54.52814553 312.29863498 -60.38791127 310.46177565 -65.828125 307.46484375 C-68.16763137 306.18678009 -70.56315799 305.04584196 -72.96630859 303.89331055 C-79.75640859 300.60780725 -85.87032077 296.79496824 -91.9375 292.3125 C-92.9275 291.673125 -93.9175 291.03375 -94.9375 290.375 C-115.94595034 275.93169039 -134.39451903 253.67243823 -144.9375 230.3125 C-144.9375 229.3225 -144.9375 228.3325 -144.9375 227.3125 C-145.5975 227.3125 -146.2575 227.3125 -146.9375 227.3125 C-149.68902098 221.65581981 -151.66388562 216.08879603 -153.21875 209.99609375 C-153.87015107 207.56396042 -154.64429198 205.24103267 -155.5 202.875 C-160.27411672 188.82759897 -160.14440384 173.28589432 -160.125 158.625 C-160.12506042 157.92172577 -160.12512085 157.21845154 -160.12518311 156.49386597 C-160.10847506 142.82921422 -159.32446115 129.61841881 -155.9375 116.3125 C-155.2775 116.3125 -154.6175 116.3125 -153.9375 116.3125 C-153.793125 115.054375 -153.64875 113.79625 -153.5 112.5 C-153.20001314 109.88582877 -152.77936703 107.83810108 -151.9375 105.3125 C-151.2775 105.3125 -150.6175 105.3125 -149.9375 105.3125 C-149.83953125 104.66023438 -149.7415625 104.00796875 -149.640625 103.3359375 C-148.66961344 97.66054232 -147.33378557 94.04671625 -143.9375 89.3125 C-143.545625 88.1575 -143.15375 87.0025 -142.75 85.8125 C-140.78880086 80.11726635 -137.20435411 75.27300825 -133.8984375 70.2890625 C-131.99815237 67.53264147 -131.99815237 67.53264147 -130.9375 65.3125 C-130.2775 65.3125 -129.6175 65.3125 -128.9375 65.3125 C-128.751875 64.6525 -128.56625 63.9925 -128.375 63.3125 C-126.32941226 59.04344732 -123.36565357 55.57086294 -119.9375 52.3125 C-119.2775 52.3125 -118.6175 52.3125 -117.9375 52.3125 C-117.67195313 51.71864502 -117.40640625 51.12479004 -117.1328125 50.51293945 C-115.90345442 48.24982581 -114.68078786 46.86160503 -112.8125 45.10546875 C-112.19358887 44.5223291 -111.57467773 43.93918945 -110.93701172 43.33837891 C-110.27717285 42.73171387 -109.61733398 42.12504883 -108.9375 41.5 C-108.2583252 40.87270996 -107.57915039 40.24541992 -106.87939453 39.59912109 C-101.84574803 35.01190186 -96.71421367 30.93412389 -90.9375 27.3125 C-89.89851563 26.63574219 -88.85953125 25.95898438 -87.7890625 25.26171875 C-81.95049882 21.53946428 -76.32147579 18.36438842 -69.765625 16.1015625 C-67.7437454 15.4616355 -67.7437454 15.4616355 -66.9375 13.3125 C-65.1171875 12.56640625 -65.1171875 12.56640625 -62.8125 11.875 C-59.90569023 10.96862467 -57.28521638 10.01600744 -54.5 8.75 C-48.78812403 6.44520794 -43.09314716 5.3125 -36.9375 5.3125 C-36.9375 4.6525 -36.9375 3.9925 -36.9375 3.3125 C-24.62554066 1.00658119 -12.52077349 0.00303309 0 0 Z M-49.9375 28.3125 C-49.9375 28.9725 -49.9375 29.6325 -49.9375 30.3125 C-50.96875 30.43625 -52 30.56 -53.0625 30.6875 C-56.55866846 31.25139814 -59.62147627 32.09932059 -62.9375 33.3125 C-62.9375 33.9725 -62.9375 34.6325 -62.9375 35.3125 C-64.195625 35.6425 -65.45375 35.9725 -66.75 36.3125 C-73.02520299 38.41405468 -77.79896398 42.2385778 -82.9375 46.3125 C-83.87078125 47.05242187 -84.8040625 47.79234375 -85.765625 48.5546875 C-88.51725716 50.77597715 -91.2311157 53.03640266 -93.9375 55.3125 C-94.73285156 55.95960937 -95.52820313 56.60671875 -96.34765625 57.2734375 C-101.45769221 61.56832193 -105.27273507 66.17285777 -109.015625 71.69921875 C-110.9375 74.3125 -110.9375 74.3125 -113.40234375 76.73046875 C-116.21040383 79.59044982 -118.16396 82.51969436 -120.25 85.9375 C-120.60900391 86.50984375 -120.96800781 87.0821875 -121.33789062 87.671875 C-123.03169427 90.44648668 -123.9375 92.00145162 -123.9375 95.3125 C-124.5975 95.3125 -125.2575 95.3125 -125.9375 95.3125 C-128.22795014 100.12459901 -128.22795014 100.12459901 -128.9375 105.3125 C-129.5975 105.3125 -130.2575 105.3125 -130.9375 105.3125 C-131.60876129 107.7488189 -132.27466354 110.18638883 -132.9375 112.625 C-133.12828125 113.31529297 -133.3190625 114.00558594 -133.515625 114.71679688 C-134.31466184 117.67037949 -134.9375 120.23809219 -134.9375 123.3125 C-135.5975 123.3125 -136.2575 123.3125 -136.9375 123.3125 C-139.57581085 137.74953346 -141.6130347 151.61962021 -140.9375 166.3125 C-140.2775 166.3125 -139.6175 166.3125 -138.9375 166.3125 C-138.88851562 167.02535156 -138.83953125 167.73820313 -138.7890625 168.47265625 C-138.35621477 174.01758491 -137.69721184 179.03336449 -135.9375 184.3125 C-135.2775 184.3125 -134.6175 184.3125 -133.9375 184.3125 C-133.81375 185.22 -133.69 186.1275 -133.5625 187.0625 C-133.01640323 189.90220323 -132.36486197 191.83840591 -130.9375 194.3125 C-130.2775 194.3125 -129.6175 194.3125 -128.9375 194.3125 C-128.86015625 195.034375 -128.7828125 195.75625 -128.703125 196.5 C-127.74459836 200.02111828 -126.18221662 201.66909166 -123.6875 204.3125 C-122.87152344 205.18132812 -122.05554688 206.05015625 -121.21484375 206.9453125 C-120.46332031 207.72648438 -119.71179688 208.50765625 -118.9375 209.3125 C-118.050625 210.26125 -117.16375 211.21 -116.25 212.1875 C-113.66181977 214.56582778 -110.86767351 216.38124928 -107.9375 218.3125 C-107.6075 218.9725 -107.2775 219.6325 -106.9375 220.3125 C-104.82422575 221.21975434 -104.82422575 221.21975434 -102.375 221.9375 C-101.54871094 222.19789063 -100.72242188 222.45828125 -99.87109375 222.7265625 C-99.23300781 222.91992188 -98.59492187 223.11328125 -97.9375 223.3125 C-97.9375 223.9725 -97.9375 224.6325 -97.9375 225.3125 C-96.58442303 226.24924559 -95.22448381 227.17697863 -93.83984375 228.06640625 C-85.31993671 233.64720778 -78.42656624 240.20237911 -73.3359375 249.1171875 C-72.87445313 249.84164062 -72.41296875 250.56609375 -71.9375 251.3125 C-71.2775 251.3125 -70.6175 251.3125 -69.9375 251.3125 C-69.855 251.9725 -69.7725 252.6325 -69.6875 253.3125 C-68.86331797 256.60922812 -67.5544524 259.24309502 -65.9921875 262.2421875 C-64.48297834 265.20470919 -63.21594588 268.24422989 -61.9375 271.3125 C-61.2775 271.3125 -60.6175 271.3125 -59.9375 271.3125 C-59.57591797 272.39337891 -59.57591797 272.39337891 -59.20703125 273.49609375 C-57.76036717 276.70546237 -56.00425137 278.78781406 -53.625 281.375 C-52.48611328 282.62990234 -52.48611328 282.62990234 -51.32421875 283.91015625 C-48.96107237 286.28877331 -46.70106799 288.41007561 -43.9375 290.3125 C-42.6175 290.3125 -41.2975 290.3125 -39.9375 290.3125 C-39.9375 290.9725 -39.9375 291.6325 -39.9375 292.3125 C-31.4542839 296.35773731 -24.37572697 298.64957953 -14.9375 298.3125 C-14.9375 298.9725 -14.9375 299.6325 -14.9375 300.3125 C-10.24599111 300.41314293 -5.55514193 300.48478117 -0.86279297 300.53222656 C0.72553481 300.55205268 2.31379259 300.57912221 3.90185547 300.61425781 C15.35760027 300.86092996 25.04825527 299.50146617 36.0625 296.3125 C38.55628615 295.69735194 41.05691212 295.12902336 43.5625 294.5625 C44.6246875 294.32015625 45.686875 294.0778125 46.78125 293.828125 C47.91046875 293.57289063 47.91046875 293.57289063 49.0625 293.3125 C49.0625 292.6525 49.0625 291.9925 49.0625 291.3125 C49.70058594 291.20292969 50.33867187 291.09335937 50.99609375 290.98046875 C52.23552734 290.74263672 52.23552734 290.74263672 53.5 290.5 C54.73556641 290.27376953 54.73556641 290.27376953 55.99609375 290.04296875 C56.67800781 289.80191406 57.35992187 289.56085938 58.0625 289.3125 C58.3925 288.3225 58.7225 287.3325 59.0625 286.3125 C60.8203125 285.77734375 60.8203125 285.77734375 63.0625 285.3125 C84.54941441 275.44308677 103.18360868 257.86173082 116.125 238.3125 C116.79660156 237.301875 117.46820313 236.29125 118.16015625 235.25 C118.78792969 234.280625 119.41570312 233.31125 120.0625 232.3125 C120.63871094 231.425625 121.21492188 230.53875 121.80859375 229.625 C123.3008329 227.31138726 123.3008329 227.31138726 123.0625 224.3125 C123.7225 224.3125 124.3825 224.3125 125.0625 224.3125 C125.38863281 223.38308594 125.71476562 222.45367187 126.05078125 221.49609375 C130.05668666 210.16375368 130.05668666 210.16375368 131.875 206.125 C133.25698602 203.360695 133.25698602 203.360695 133.0625 200.3125 C133.7225 200.3125 134.3825 200.3125 135.0625 200.3125 C135.18367188 199.50425781 135.30484375 198.69601563 135.4296875 197.86328125 C135.59726562 196.79464844 135.76484375 195.72601563 135.9375 194.625 C136.09992188 193.56925781 136.26234375 192.51351562 136.4296875 191.42578125 C137.0625 188.3125 137.0625 188.3125 138.08325195 186.15356445 C139.393412 182.35243444 139.36786769 178.71536612 139.36328125 174.7421875 C139.36756638 173.90648224 139.3718515 173.07077698 139.37626648 172.20974731 C139.38200279 170.43622742 139.38251518 168.66268401 139.37817383 166.88916016 C139.37506717 164.24467621 139.39829211 161.60137252 139.42382812 158.95703125 C139.46568691 147.14290783 138.25042803 135.91687953 136.0625 124.3125 C135.4025 124.3125 134.7425 124.3125 134.0625 124.3125 C133.95292969 123.61125 133.84335937 122.91 133.73046875 122.1875 C132.73705424 116.243166 131.43827447 110.84817155 129.0625 105.3125 C128.79050781 104.67183594 128.51851563 104.03117187 128.23828125 103.37109375 C127.51607076 101.68358728 126.78954744 99.99792817 126.0625 98.3125 C125.7325 97.3225 125.4025 96.3325 125.0625 95.3125 C124.4025 95.3125 123.7425 95.3125 123.0625 95.3125 C122.629375 93.95125 122.629375 93.95125 122.1875 92.5625 C121.29718224 89.99047092 120.34755587 87.69903234 119.0625 85.3125 C118.4025 85.3125 117.7425 85.3125 117.0625 85.3125 C116.69125 83.9821875 116.69125 83.9821875 116.3125 82.625 C114.71791949 78.39936166 112.41729277 75.66729277 109.25 72.5 C107.31215758 70.56215758 105.53748893 68.57476394 103.75 66.5 C95.6165632 57.13902991 95.6165632 57.13902991 86.0625 49.3125 C85.0725 49.3125 84.0825 49.3125 83.0625 49.3125 C82.7325 48.3225 82.4025 47.3325 82.0625 46.3125 C79.81554511 44.75417594 77.61204584 43.36110082 75.25 42 C74.57146973 41.60264648 73.89293945 41.20529297 73.19384766 40.79589844 C60.00741488 33.15203809 46.65669768 27.33325739 31.875 23.5625 C31.05580078 23.35165771 30.23660156 23.14081543 29.39257812 22.92358398 C3.06397212 16.48658819 -24.57398738 19.99107595 -49.9375 28.3125 Z " fill="#F8F8F9" transform="translate(203.9375,47.6875)"/>
<path d="M0 0 C8.45347278 16.70969787 12.04773651 32.33261389 9 51 C8.34 51 7.68 51 7 51 C6.855625 52.258125 6.71125 53.51625 6.5625 54.8125 C6.26251314 57.42667123 5.84186703 59.47439892 5 62 C4.34 62 3.68 62 3 62 C2.01 64.97 1.02 67.94 0 71 C-0.66 71 -1.32 71 -2 71 C-2.36738281 72.08474609 -2.36738281 72.08474609 -2.7421875 73.19140625 C-8.18903994 85.35378793 -21.32054737 92.9329144 -33 98 C-33.66 98 -34.32 98 -35 98 C-35 98.66 -35 99.32 -35 100 C-40.22512279 101.46670113 -44.5814234 102.22577402 -50 102 C-50 102.66 -50 103.32 -50 104 C-53.54159657 104.05841253 -57.08306793 104.09373452 -60.625 104.125 C-61.62402344 104.14175781 -62.62304688 104.15851563 -63.65234375 104.17578125 C-68.87644217 104.21037793 -73.10774856 104.0384381 -78 102 C-79.78931215 101.45060556 -81.58085339 100.90839494 -83.375 100.375 C-84.24898437 100.11460937 -85.12296875 99.85421875 -86.0234375 99.5859375 C-87.00183594 99.29589844 -87.00183594 99.29589844 -88 99 C-88 98.34 -88 97.68 -88 97 C-89.65 96.67 -91.3 96.34 -93 96 C-91.57349381 87.55069409 -87.91520598 79.42294184 -83.94921875 71.8671875 C-82.95051684 69.90266276 -82.10226695 67.90704259 -81.25 65.875 C-78.3845232 59.30057945 -74.62095324 53.17847119 -71 47 C-70.34 47 -69.68 47 -69 47 C-68.77957031 46.29875 -68.55914062 45.5975 -68.33203125 44.875 C-66.68932341 41.32944877 -64.35471086 38.7911848 -61.6875 36 C-61.21376953 35.49210937 -60.74003906 34.98421875 -60.25195312 34.4609375 C-58.84690888 32.96171108 -57.42560801 31.47965715 -56 30 C-55.09894531 29.05125 -54.19789063 28.1025 -53.26953125 27.125 C-51 25 -51 25 -49 25 C-48.505 23.515 -48.505 23.515 -48 22 C-45.80399286 20.20538225 -43.62917469 18.55988075 -41.3125 16.9375 C-40.69955078 16.49083984 -40.08660156 16.04417969 -39.45507812 15.58398438 C-35.76156205 12.96366385 -32.42499567 11.20310942 -28 10 C-28 9.34 -28 8.68 -28 8 C-21.375 5 -21.375 5 -18 5 C-18 4.34 -18 3.68 -18 3 C-16.31598074 2.48839921 -14.62754778 1.99131941 -12.9375 1.5 C-11.99777344 1.2215625 -11.05804688 0.943125 -10.08984375 0.65625 C-6.65372677 -0.07354476 -3.50286133 -0.10495465 0 0 Z " fill="#E37B37" transform="translate(264,183)"/>
<path d="M0 0 C2.23669578 2.96143519 2.9609375 4.80175182 2.9609375 8.5390625 C2.06375 8.62542969 1.1665625 8.71179688 0.2421875 8.80078125 C-9.66923031 9.91683966 -18.62755126 12.28002642 -28.0390625 15.5390625 C-28.81894531 15.796875 -29.59882813 16.0546875 -30.40234375 16.3203125 C-35.67271602 18.15348546 -40.55709558 20.76046959 -45.5 23.33203125 C-48.0390625 24.5390625 -48.0390625 24.5390625 -50.0390625 24.5390625 C-50.0390625 25.1990625 -50.0390625 25.8590625 -50.0390625 26.5390625 C-50.61914062 26.85359375 -51.19921875 27.168125 -51.796875 27.4921875 C-58.63764447 31.23993579 -64.55848235 34.92146785 -70.0390625 40.5390625 C-70.9878125 41.3021875 -71.9365625 42.0653125 -72.9140625 42.8515625 C-76.75774061 46.01235363 -79.84609155 49.73880099 -83.0390625 53.5390625 C-84.27269531 54.97572266 -84.27269531 54.97572266 -85.53125 56.44140625 C-89.32175896 60.88601085 -93.02586374 65.26112137 -96.0390625 70.2890625 C-96.6990625 71.3615625 -97.3590625 72.4340625 -98.0390625 73.5390625 C-98.6990625 73.5390625 -99.3590625 73.5390625 -100.0390625 73.5390625 C-100.2659375 74.3640625 -100.4928125 75.1890625 -100.7265625 76.0390625 C-102.08612428 79.66456059 -103.81166589 82.57960657 -105.91796875 85.8046875 C-107.0874458 87.54418968 -107.0874458 87.54418968 -108.0390625 89.5390625 C-109.0290625 89.2090625 -110.0190625 88.8790625 -111.0390625 88.5390625 C-111.0390625 87.8790625 -111.0390625 87.2190625 -111.0390625 86.5390625 C-111.6990625 86.5390625 -112.3590625 86.5390625 -113.0390625 86.5390625 C-113.71314558 85.27214743 -114.37806747 84.00035501 -115.0390625 82.7265625 C-115.4103125 82.01886719 -115.7815625 81.31117188 -116.1640625 80.58203125 C-117.0390625 78.5390625 -117.0390625 78.5390625 -117.0390625 75.5390625 C-117.6990625 75.5390625 -118.3590625 75.5390625 -119.0390625 75.5390625 C-122.48325384 65.16548619 -122.48325384 65.16548619 -122.0390625 59.5390625 C-122.6990625 59.5390625 -123.3590625 59.5390625 -124.0390625 59.5390625 C-124.0390625 54.2590625 -124.0390625 48.9790625 -124.0390625 43.5390625 C-122.5540625 43.0440625 -122.5540625 43.0440625 -121.0390625 42.5390625 C-120.7090625 41.5490625 -120.3790625 40.5590625 -120.0390625 39.5390625 C-118.07230052 37.83863287 -116.12094324 36.2727036 -114.0390625 34.7265625 C-113.44818848 34.28151367 -112.85731445 33.83646484 -112.24853516 33.37792969 C-91.07052983 17.5390625 -91.07052983 17.5390625 -85.0390625 17.5390625 C-85.0390625 16.8790625 -85.0390625 16.2190625 -85.0390625 15.5390625 C-83.60352225 15.03346342 -82.1655423 14.5347876 -80.7265625 14.0390625 C-79.92605469 13.760625 -79.12554687 13.4821875 -78.30078125 13.1953125 C-76.0390625 12.5390625 -76.0390625 12.5390625 -73.0390625 12.5390625 C-73.0390625 11.8790625 -73.0390625 11.2190625 -73.0390625 10.5390625 C-71.12393978 10.03318103 -69.20689328 9.53457859 -67.2890625 9.0390625 C-66.22171875 8.760625 -65.154375 8.4821875 -64.0546875 8.1953125 C-61.0390625 7.5390625 -61.0390625 7.5390625 -57.0390625 7.5390625 C-57.0390625 6.8790625 -57.0390625 6.2190625 -57.0390625 5.5390625 C-54.68647906 5.03039581 -52.33244846 4.532 -49.9765625 4.0390625 C-49.31978516 3.89597656 -48.66300781 3.75289062 -47.98632812 3.60546875 C-43.60766262 2.69953795 -39.53487546 2.39875104 -35.0390625 2.5390625 C-35.0390625 1.8790625 -35.0390625 1.2190625 -35.0390625 0.5390625 C-4.68319211 -3.35539052 -4.68319211 -3.35539052 0 0 Z " fill="#E37B38" transform="translate(257.0390625,170.4609375)"/>
<path d="M0 0 C6.32695621 0.54231053 9.12731228 4.96370594 13 9.5 C13.680625 10.31984375 13.680625 10.31984375 14.375 11.15625 C15.66596328 12.6209968 17.03066939 14.02067906 18.41796875 15.39453125 C20.89065798 17.88966547 23.10588565 20.45646176 25.3125 23.1875 C26.08464844 24.14269531 26.85679687 25.09789062 27.65234375 26.08203125 C28.42707031 27.04496094 29.20179688 28.00789063 30 29 C30.74378906 29.91136719 31.48757812 30.82273438 32.25390625 31.76171875 C32.95386719 32.62410156 33.65382813 33.48648438 34.375 34.375 C35.00148438 35.14585937 35.62796875 35.91671875 36.2734375 36.7109375 C41 42.97737557 41 42.97737557 41 46 C42.485 46.495 42.485 46.495 44 47 C46.63687954 50.51583938 48.4371716 53.91580845 50 58 C48.7310791 58.01981934 47.4621582 58.03963867 46.15478516 58.06005859 C41.35725072 58.13727453 36.55997501 58.22579156 31.76269531 58.31738281 C29.7031777 58.35520153 27.64360452 58.39012748 25.58398438 58.421875 C8.95748499 58.68115764 -7.61381855 59.07729246 -23.75 63.5 C-24.57242188 63.71269531 -25.39484375 63.92539063 -26.2421875 64.14453125 C-30.55484864 65.27469808 -34.78293628 66.54832231 -39 68 C-40.72622293 68.55097599 -42.45526032 69.0932427 -44.1875 69.625 C-45.44626953 70.01558594 -45.44626953 70.01558594 -46.73046875 70.4140625 C-49 71 -49 71 -52 71 C-48.42269284 58.16378019 -40.10695456 48.2941297 -32 38 C-30.76990257 36.41738967 -29.54062412 34.83414213 -28.3125 33.25 C-27.76464844 32.54875 -27.21679688 31.8475 -26.65234375 31.125 C-25.49075792 29.63114021 -24.33786469 28.1305005 -23.19140625 26.625 C-20.00452012 22.45806072 -16.76560173 18.66650695 -13 15 C-12.09491493 13.90340418 -11.1991552 12.79905025 -10.3125 11.6875 C-9.549375 10.800625 -8.78625 9.91375 -8 9 C-7.34 9 -6.68 9 -6 9 C-5.7525 8.443125 -5.505 7.88625 -5.25 7.3125 C-3.78393985 4.60028873 -1.97010529 2.36412635 0 0 Z " fill="#E37B37" transform="translate(201,105)"/>
<path d="M0 0 C8.45347278 16.70969787 12.04773651 32.33261389 9 51 C8.34 51 7.68 51 7 51 C6.855625 52.258125 6.71125 53.51625 6.5625 54.8125 C6.26251314 57.42667123 5.84186703 59.47439892 5 62 C4.34 62 3.68 62 3 62 C2.01 64.97 1.02 67.94 0 71 C-0.66 71 -1.32 71 -2 71 C-2.36738281 72.08474609 -2.36738281 72.08474609 -2.7421875 73.19140625 C-8.18903994 85.35378793 -21.32054737 92.9329144 -33 98 C-33.66 98 -34.32 98 -35 98 C-35 98.66 -35 99.32 -35 100 C-40.22512279 101.46670113 -44.5814234 102.22577402 -50 102 C-50 102.66 -50 103.32 -50 104 C-53.54159657 104.05841253 -57.08306793 104.09373452 -60.625 104.125 C-61.62402344 104.14175781 -62.62304688 104.15851563 -63.65234375 104.17578125 C-68.87644217 104.21037793 -73.10774856 104.0384381 -78 102 C-79.78931215 101.45060556 -81.58085339 100.90839494 -83.375 100.375 C-84.24898437 100.11460937 -85.12296875 99.85421875 -86.0234375 99.5859375 C-87.00183594 99.29589844 -87.00183594 99.29589844 -88 99 C-88 98.34 -88 97.68 -88 97 C-89.65 96.67 -91.3 96.34 -93 96 C-91.57349381 87.55069409 -87.91520598 79.42294184 -83.94921875 71.8671875 C-82.95051684 69.90266276 -82.10226695 67.90704259 -81.25 65.875 C-78.3845232 59.30057945 -74.62095324 53.17847119 -71 47 C-70.34 47 -69.68 47 -69 47 C-68.77957031 46.29875 -68.55914062 45.5975 -68.33203125 44.875 C-66.68932341 41.32944877 -64.35471086 38.7911848 -61.6875 36 C-61.21376953 35.49210937 -60.74003906 34.98421875 -60.25195312 34.4609375 C-58.84690888 32.96171108 -57.42560801 31.47965715 -56 30 C-55.09894531 29.05125 -54.19789063 28.1025 -53.26953125 27.125 C-51 25 -51 25 -49 25 C-48.505 23.515 -48.505 23.515 -48 22 C-45.80399286 20.20538225 -43.62917469 18.55988075 -41.3125 16.9375 C-40.69955078 16.49083984 -40.08660156 16.04417969 -39.45507812 15.58398438 C-35.76156205 12.96366385 -32.42499567 11.20310942 -28 10 C-28 9.34 -28 8.68 -28 8 C-21.375 5 -21.375 5 -18 5 C-18 4.34 -18 3.68 -18 3 C-16.31598074 2.48839921 -14.62754778 1.99131941 -12.9375 1.5 C-11.99777344 1.2215625 -11.05804688 0.943125 -10.08984375 0.65625 C-6.65372677 -0.07354476 -3.50286133 -0.10495465 0 0 Z M-9 4 C-9.9075 4.12375 -10.815 4.2475 -11.75 4.375 C-16.45332368 5.27948532 -19.64793407 7.64793407 -23 11 C-23.556875 10.79375 -24.11375 10.5875 -24.6875 10.375 C-28.49687331 9.75726379 -30.81839132 11.98090218 -34 14 C-34 14.66 -34 15.32 -34 16 C-34.55816406 16.08765625 -35.11632812 16.1753125 -35.69140625 16.265625 C-42.2268712 18.34458847 -48.49217468 24.8911313 -53 30 C-53 30.66 -53 31.32 -53 32 C-53.66 32 -54.32 32 -55 32 C-55.66 32.99 -56.32 33.98 -57 35 C-58.485 35.495 -58.485 35.495 -60 36 C-60 37.32 -60 38.64 -60 40 C-61.98 40.495 -61.98 40.495 -64 41 C-64 41.99 -64 42.98 -64 44 C-64.61359375 44.2475 -65.2271875 44.495 -65.859375 44.75 C-68.39494109 46.23062253 -69.02968785 47.36567537 -70.25 50 C-70.58515625 50.70125 -70.9203125 51.4025 -71.265625 52.125 C-72.12156397 53.97476174 -72.12156397 53.97476174 -72 56 C-72.66 56 -73.32 56 -74 56 C-74.20625 56.804375 -74.4125 57.60875 -74.625 58.4375 C-75.84289993 61.59296799 -77.09510695 63.75416636 -79 66.5 C-81.3851609 69.95099367 -82.79680874 72.96071507 -84 77 C-84.64744265 78.32208877 -85.31581238 79.63404767 -86 80.9375 C-88.53389636 85.88237984 -90 90.40024661 -90 96 C-74.08514496 101.74633699 -52.56102819 104.34870855 -36.73046875 96.9375 C-35.87388672 96.4734375 -35.87388672 96.4734375 -35 96 C-32.67504723 95.61250787 -30.34148732 95.27017161 -28 95 C-27.95875 94.38125 -27.9175 93.7625 -27.875 93.125 C-27.58625 92.42375 -27.2975 91.7225 -27 91 C-24.25 89.9375 -24.25 89.9375 -21 89 C-18.18219466 87.61114752 -18.18219466 87.61114752 -16 86 C-16 85.34 -16 84.68 -16 84 C-15.01 83.67 -14.02 83.34 -13 83 C-12.505 81.515 -12.505 81.515 -12 80 C-11.34 79.71125 -10.68 79.4225 -10 79.125 C-9.34 78.75375 -8.68 78.3825 -8 78 C-7.835 77.175 -7.67 76.35 -7.5 75.5 C-7.335 74.675 -7.17 73.85 -7 73 C-6.39414062 72.71640625 -5.78828125 72.4328125 -5.1640625 72.140625 C-0.25526434 69.55331622 2.20159307 62.86294949 4.3125 57.9375 C5.23710937 53.98689635 5.65895898 50.03864368 6 46 C6.33 46 6.66 46 7 46 C7.08825361 42.52099751 7.14080635 39.04228883 7.1875 35.5625 C7.21263672 34.58861328 7.23777344 33.61472656 7.26367188 32.61132812 C7.32844794 26.15531319 6.47786125 20.95993966 4 15 C3.57364258 13.96069336 3.57364258 13.96069336 3.13867188 12.90039062 C2.44727639 11.2577134 1.7270513 9.62721006 1 8 C0.34 8 -0.32 8 -1 8 C-1.495 5.03 -1.495 5.03 -2 2 C-5.95457848 1.65176193 -5.95457848 1.65176193 -9 4 Z " fill="#BA7D58" transform="translate(264,183)"/>
<path d="M0 0 C2.475 0.495 2.475 0.495 5 1 C5.495 2.485 5.495 2.485 6 4 C4.02 4 2.04 4 0 4 C-0.23847656 4.72058594 -0.47695312 5.44117187 -0.72265625 6.18359375 C-2.19293837 9.42540845 -4.00228105 11.47532979 -6.4375 14.0625 C-9.68299609 17.51854062 -9.68299609 17.51854062 -12.59765625 21.24609375 C-14 23 -14 23 -17 24 C-18.01187895 25.65948148 -19.0126546 27.32580562 -20 29 C-20.66 29 -21.32 29 -22 29 C-22.33 29.99 -22.66 30.98 -23 32 C-23.66 32 -24.32 32 -25 32 C-25 32.66 -25 33.32 -25 34 C-25.66 34 -26.32 34 -27 34 C-27.33 35.65 -27.66 37.3 -28 39 C-28.66 39 -29.32 39 -30 39 C-30.185625 39.86625 -30.37125 40.7325 -30.5625 41.625 C-32.0131907 45.03096946 -32.70947618 45.78514171 -35.5 47.9375 C-39.32662749 50.93674857 -40.1487132 53.27062887 -41 58 C-41.99 58 -42.98 58 -44 58 C-44 59.65 -44 61.3 -44 63 C-44.639375 63.268125 -45.27875 63.53625 -45.9375 63.8125 C-48.33131686 64.88667752 -48.33131686 64.88667752 -49 68 C-47.35153231 67.55123384 -45.70626545 67.09069512 -44.0625 66.625 C-43.14597656 66.36976563 -42.22945312 66.11453125 -41.28515625 65.8515625 C-38.83254913 65.23339896 -38.83254913 65.23339896 -38 63 C-36.27734375 62.47265625 -36.27734375 62.47265625 -33.9375 62.0625 C-32.58591797 61.81693359 -32.58591797 61.81693359 -31.20703125 61.56640625 C-30.14871094 61.37949219 -29.09039062 61.19257813 -28 61 C-26.05401749 60.63000332 -24.10804806 60.25993576 -22.16235352 59.88842773 C-16.82528844 58.87089981 -16.82528844 58.87089981 -14.23828125 58.41162109 C-12.69930657 58.12860285 -11.16533773 57.81737451 -9.63671875 57.48291016 C1.20022798 55.3182733 12.24307818 55.54043988 23.25 55.375 C25.36329606 55.33674736 27.47657775 55.29769161 29.58984375 55.2578125 C34.72644348 55.16261028 39.86311588 55.07829452 45 55 C44.67 53.35 44.34 51.7 44 50 C43.34 50 42.68 50 42 50 C40.63996177 48.3455812 39.36098795 46.62403955 38.125 44.875 C37.41214844 43.8746875 36.69929688 42.874375 35.96484375 41.84375 C34.49062156 39.71008448 33.06899159 37.5681851 31.6875 35.375 C30.15539038 32.72391532 30.15539038 32.72391532 27 32 C25.61328125 30.00390625 25.61328125 30.00390625 24.3125 27.5625 C23.87550781 26.75941406 23.43851562 25.95632812 22.98828125 25.12890625 C22 23 22 23 22 21 C21.236875 20.773125 20.47375 20.54625 19.6875 20.3125 C16.4246973 18.71903821 15.53739291 17.23661664 14 14 C14 13.34 14 12.68 14 12 C13.01 11.67 12.02 11.34 11 11 C9.66666667 9.66666667 8.33333333 8.33333333 7 7 C7.33 6.01 7.66 5.02 8 4 C15.2232172 11.02562159 21.69189427 18.51430327 27.9453125 26.41015625 C29.34643909 28.17621505 30.75839514 29.93372305 32.1796875 31.68359375 C32.88351563 32.55113281 33.58734375 33.41867188 34.3125 34.3125 C34.94800781 35.09238281 35.58351563 35.87226563 36.23828125 36.67578125 C41 42.9578714 41 42.9578714 41 46 C42.485 46.495 42.485 46.495 44 47 C46.63687954 50.51583938 48.4371716 53.91580845 50 58 C48.7310791 58.01981934 47.4621582 58.03963867 46.15478516 58.06005859 C41.35725072 58.13727453 36.55997501 58.22579156 31.76269531 58.31738281 C29.7031777 58.35520153 27.64360452 58.39012748 25.58398438 58.421875 C8.95748499 58.68115764 -7.61381855 59.07729246 -23.75 63.5 C-24.57242188 63.71269531 -25.39484375 63.92539063 -26.2421875 64.14453125 C-30.55484864 65.27469808 -34.78293628 66.54832231 -39 68 C-40.72622293 68.55097599 -42.45526032 69.0932427 -44.1875 69.625 C-45.44626953 70.01558594 -45.44626953 70.01558594 -46.73046875 70.4140625 C-49 71 -49 71 -52 71 C-48.42269284 58.16378019 -40.10695456 48.2941297 -32 38 C-30.76990257 36.41738967 -29.54062412 34.83414213 -28.3125 33.25 C-27.76464844 32.54875 -27.21679688 31.8475 -26.65234375 31.125 C-25.49075792 29.63114021 -24.33786469 28.1305005 -23.19140625 26.625 C-20.00452012 22.45806072 -16.76560173 18.66650695 -13 15 C-12.09491493 13.90340418 -11.1991552 12.79905025 -10.3125 11.6875 C-9.549375 10.800625 -8.78625 9.91375 -8 9 C-7.34 9 -6.68 9 -6 9 C-5.7525 8.443125 -5.505 7.88625 -5.25 7.3125 C-3.78393985 4.60028873 -1.97010529 2.36412635 0 0 Z " fill="#B97F5B" transform="translate(201,105)"/>
<path d="M0 0 C2.23669578 2.96143519 2.9609375 4.80175182 2.9609375 8.5390625 C2.06375 8.62542969 1.1665625 8.71179688 0.2421875 8.80078125 C-9.66923031 9.91683966 -18.62755126 12.28002642 -28.0390625 15.5390625 C-28.81894531 15.796875 -29.59882813 16.0546875 -30.40234375 16.3203125 C-35.67271602 18.15348546 -40.55709558 20.76046959 -45.5 23.33203125 C-48.0390625 24.5390625 -48.0390625 24.5390625 -50.0390625 24.5390625 C-50.0390625 25.1990625 -50.0390625 25.8590625 -50.0390625 26.5390625 C-50.61914062 26.85359375 -51.19921875 27.168125 -51.796875 27.4921875 C-60.57194376 32.12260606 -60.57194376 32.12260606 -68.0390625 38.5390625 C-68.0390625 37.5490625 -68.0390625 36.5590625 -68.0390625 35.5390625 C-67.3996875 35.2915625 -66.7603125 35.0440625 -66.1015625 34.7890625 C-63.85164709 33.72343817 -63.85164709 33.72343817 -63.2890625 31.4140625 C-63.1653125 30.4859375 -63.1653125 30.4859375 -63.0390625 29.5390625 C-61.7190625 29.5390625 -60.3990625 29.5390625 -59.0390625 29.5390625 C-59.0390625 28.8790625 -59.0390625 28.2190625 -59.0390625 27.5390625 C-57.0590625 26.8790625 -55.0790625 26.2190625 -53.0390625 25.5390625 C-53.0390625 24.5490625 -53.0390625 23.5590625 -53.0390625 22.5390625 C-52.3171875 22.2709375 -51.5953125 22.0028125 -50.8515625 21.7265625 C-48.03796171 20.62866329 -48.03796171 20.62866329 -45.6640625 19.0390625 C-42.53994515 17.25385259 -39.51801779 16.42461476 -36.0390625 15.5390625 C-35.2346875 15.3328125 -34.4303125 15.1265625 -33.6015625 14.9140625 C-33.0859375 14.7903125 -32.5703125 14.6665625 -32.0390625 14.5390625 C-32.0390625 13.8790625 -32.0390625 13.2190625 -32.0390625 12.5390625 C-26.17550542 10.3002498 -20.38964205 8.9354619 -14.2265625 7.8515625 C-13.48543213 7.72031982 -12.74430176 7.58907715 -11.98071289 7.45385742 C-8.59863465 6.88089087 -5.48029685 6.5390625 -2.0390625 6.5390625 C-2.5340625 3.5690625 -2.5340625 3.5690625 -3.0390625 0.5390625 C-3.76037354 0.6944751 -4.48168457 0.8498877 -5.22485352 1.01000977 C-7.85569052 1.50458978 -10.39943516 1.79696206 -13.06640625 2.00390625 C-14.01765381 2.0807666 -14.96890137 2.15762695 -15.94897461 2.23681641 C-16.94807861 2.31593262 -17.94718262 2.39504883 -18.9765625 2.4765625 C-27.72540214 3.19821586 -36.37121954 4.12697023 -45.0390625 5.5390625 C-45.0390625 6.1990625 -45.0390625 6.8590625 -45.0390625 7.5390625 C-46.93978516 7.79429687 -46.93978516 7.79429687 -48.87890625 8.0546875 C-61.40501998 9.80280475 -61.40501998 9.80280475 -73.0390625 14.5390625 C-74.5752332 15.23875669 -76.11710279 15.92605676 -77.6640625 16.6015625 C-79.79704703 17.53962899 -81.91982969 18.48168024 -84.01953125 19.4921875 C-88.5238966 21.60510941 -88.5238966 21.60510941 -91.4765625 21.2265625 C-91.9921875 20.9996875 -92.5078125 20.7728125 -93.0390625 20.5390625 C-87.2890625 17.5390625 -87.2890625 17.5390625 -85.0390625 17.5390625 C-85.0390625 16.8790625 -85.0390625 16.2190625 -85.0390625 15.5390625 C-83.60352225 15.03346342 -82.1655423 14.5347876 -80.7265625 14.0390625 C-79.92605469 13.760625 -79.12554687 13.4821875 -78.30078125 13.1953125 C-76.0390625 12.5390625 -76.0390625 12.5390625 -73.0390625 12.5390625 C-73.0390625 11.8790625 -73.0390625 11.2190625 -73.0390625 10.5390625 C-71.12393978 10.03318103 -69.20689328 9.53457859 -67.2890625 9.0390625 C-66.22171875 8.760625 -65.154375 8.4821875 -64.0546875 8.1953125 C-61.0390625 7.5390625 -61.0390625 7.5390625 -57.0390625 7.5390625 C-57.0390625 6.8790625 -57.0390625 6.2190625 -57.0390625 5.5390625 C-54.68647906 5.03039581 -52.33244846 4.532 -49.9765625 4.0390625 C-49.31978516 3.89597656 -48.66300781 3.75289062 -47.98632812 3.60546875 C-43.60766262 2.69953795 -39.53487546 2.39875104 -35.0390625 2.5390625 C-35.0390625 1.8790625 -35.0390625 1.2190625 -35.0390625 0.5390625 C-4.68319211 -3.35539052 -4.68319211 -3.35539052 0 0 Z " fill="#BA7E5B" transform="translate(257.0390625,170.4609375)"/>
<path d="M0 0 C8.73215714 7.06004194 15.72705994 15.44805046 22.4621582 24.37744141 C24.70200759 27.34357312 26.99990415 30.18800286 29.5 32.9375 C31.99201385 35.99021697 32.85374284 38.29670762 34 42 C34.99 42.33 35.98 42.66 37 43 C39.71424348 46.61899131 41.30228271 49.75570677 43 54 C30.79 54 18.58 54 6 54 C6.33 53.34 6.66 52.68 7 52 C22.345 51.505 22.345 51.505 38 51 C37.67 49.35 37.34 47.7 37 46 C36.34 46 35.68 46 35 46 C33.63996177 44.3455812 32.36098795 42.62403955 31.125 40.875 C30.05572266 39.37453125 30.05572266 39.37453125 28.96484375 37.84375 C27.49062156 35.71008448 26.06899159 33.5681851 24.6875 31.375 C23.15539038 28.72391532 23.15539038 28.72391532 20 28 C18.61328125 26.00390625 18.61328125 26.00390625 17.3125 23.5625 C16.65701172 22.35787109 16.65701172 22.35787109 15.98828125 21.12890625 C15 19 15 19 15 17 C14.236875 16.773125 13.47375 16.54625 12.6875 16.3125 C9.4246973 14.71903821 8.53739291 13.23661664 7 10 C7 9.34 7 8.68 7 8 C6.01 7.67 5.02 7.34 4 7 C2.66666667 5.66666667 1.33333333 4.33333333 0 3 C0 2.01 0 1.02 0 0 Z " fill="#A27155" transform="translate(208,109)"/>
<path d="M0 0 C-2.79973575 1.56308117 -4.93450693 2.24324489 -8.125 2.4375 C-11.59188032 2.74957597 -14.62875426 3.421401 -17.9375 4.5 C-22.92826044 6.1061317 -27.78246127 6.67806676 -33 7 C-33 7.66 -33 8.32 -33 9 C-34.90072266 9.25523437 -34.90072266 9.25523437 -36.83984375 9.515625 C-49.36595748 11.26374225 -49.36595748 11.26374225 -61 16 C-62.5361707 16.69969419 -64.07804029 17.38699426 -65.625 18.0625 C-67.75798453 19.00056649 -69.88076719 19.94261774 -71.98046875 20.953125 C-76.4848341 23.06604691 -76.4848341 23.06604691 -79.4375 22.6875 C-79.953125 22.460625 -80.46875 22.23375 -81 22 C-75.25 19 -75.25 19 -73 19 C-73 18.34 -73 17.68 -73 17 C-71.56445975 16.49440092 -70.1264798 15.9957251 -68.6875 15.5 C-67.88699219 15.2215625 -67.08648437 14.943125 -66.26171875 14.65625 C-64 14 -64 14 -61 14 C-61 13.34 -61 12.68 -61 12 C-59.08487728 11.49411853 -57.16783078 10.99551609 -55.25 10.5 C-54.18265625 10.2215625 -53.1153125 9.943125 -52.015625 9.65625 C-49 9 -49 9 -45 9 C-45 8.34 -45 7.68 -45 7 C-42.64741656 6.49133331 -40.29338596 5.9929375 -37.9375 5.5 C-37.28072266 5.35691406 -36.62394531 5.21382812 -35.94726562 5.06640625 C-31.56860012 4.16047545 -27.49581296 3.85968854 -23 4 C-23 3.34 -23 2.68 -23 2 C-20.10452736 1.66324721 -17.20868928 1.33048266 -14.3125 1 C-13.49587891 0.90460938 -12.67925781 0.80921875 -11.83789062 0.7109375 C-7.87139948 0.26129478 -3.99997537 -0.13034543 0 0 Z " fill="#BA7E59" transform="translate(245,169)"/>
<path d="M0 0 C-0.1875 1.875 -0.1875 1.875 -1 4 C-2.64551962 4.71727778 -4.31422289 5.38325228 -6 6 C-6.99 7.485 -6.99 7.485 -8 9 C-8.99 9 -9.98 9 -11 9 C-11.33 9.99 -11.66 10.98 -12 12 C-13.4375 13.6875 -13.4375 13.6875 -15 15 C-15.66 15 -16.32 15 -17 15 C-16.48145264 21.93215939 -15.6217143 28.72191023 -14.40234375 35.56640625 C-14 38 -14 38 -14 40 C-13.34 40 -12.68 40 -12 40 C-12 41.65 -12 43.3 -12 45 C-11.34 45 -10.68 45 -10 45 C-9.731875 45.804375 -9.46375 46.60875 -9.1875 47.4375 C-8.795625 48.283125 -8.40375 49.12875 -8 50 C-7.01 50.33 -6.02 50.66 -5 51 C-5 52.32 -5 53.64 -5 55 C-3.02 54.505 -3.02 54.505 -1 54 C-1.66 55.98 -2.32 57.96 -3 60 C-3.99 59.67 -4.98 59.34 -6 59 C-6 58.34 -6 57.68 -6 57 C-6.66 57 -7.32 57 -8 57 C-8.67408308 55.73308493 -9.33900497 54.46129251 -10 53.1875 C-10.556875 52.12595703 -10.556875 52.12595703 -11.125 51.04296875 C-12 49 -12 49 -12 46 C-12.66 46 -13.32 46 -14 46 C-17.44419134 35.62642369 -17.44419134 35.62642369 -17 30 C-17.66 30 -18.32 30 -19 30 C-19 24.72 -19 19.44 -19 14 C-18.01 13.67 -17.02 13.34 -16 13 C-15.67 12.01 -15.34 11.02 -15 10 C-12.88794553 8.17529988 -10.78998471 6.48251795 -8.5625 4.8125 C-7.96373047 4.34908203 -7.36496094 3.88566406 -6.74804688 3.40820312 C-2.26568253 0 -2.26568253 0 0 0 Z " fill="#BC7F5A" transform="translate(152,200)"/>
<path d="M0 0 C-2.35953094 2.35953094 -3.77895617 2.49141413 -7 3 C-7 3.66 -7 4.32 -7 5 C-12.22512279 6.46670113 -16.5814234 7.22577402 -22 7 C-22 7.66 -22 8.32 -22 9 C-25.49983803 9.08803772 -28.99938638 9.14073608 -32.5 9.1875 C-33.97339844 9.22520508 -33.97339844 9.22520508 -35.4765625 9.26367188 C-41.73173059 9.32622356 -46.29212987 8.58892681 -52 6 C-52 5.34 -52 4.68 -52 4 C-53.32 3.67 -54.64 3.34 -56 3 C-51.85888297 2.81995143 -48.29749172 3.08187888 -44.25 4 C-35.6196477 5.79852919 -27.67716151 5.10480233 -19.0625 3.625 C-18.32829834 3.49907471 -17.59409668 3.37314941 -16.83764648 3.2434082 C-10.6333787 2.09393922 -6.42700839 -0.24719263 0 0 Z " fill="#B67C56" transform="translate(236,278)"/>
<path d="M0 0 C8.25555915 6.6747074 14.99741273 14.57171657 21.5625 22.875 C22.00440674 23.4222876 22.44631348 23.9695752 22.90161133 24.53344727 C25.38267768 27.73509386 26 28.7925498 26 33 C25.3503125 32.0409375 25.3503125 32.0409375 24.6875 31.0625 C23.08760823 28.73253997 23.08760823 28.73253997 20 28 C18.61328125 26.00390625 18.61328125 26.00390625 17.3125 23.5625 C16.65701172 22.35787109 16.65701172 22.35787109 15.98828125 21.12890625 C15 19 15 19 15 17 C14.236875 16.773125 13.47375 16.54625 12.6875 16.3125 C9.4246973 14.71903821 8.53739291 13.23661664 7 10 C7 9.34 7 8.68 7 8 C6.01 7.67 5.02 7.34 4 7 C2.66666667 5.66666667 1.33333333 4.33333333 0 3 C0 2.01 0 1.02 0 0 Z " fill="#AF7A5B" transform="translate(208,109)"/>
<path d="M0 0 C1.32 0.33 2.64 0.66 4 1 C1.84112353 3.936072 -0.35585132 6.35968106 -3.1875 8.625 C-10.64030509 14.83033986 -16.30617734 23.20727801 -22 31 C-22.33 30.01 -22.66 29.02 -23 28 C-21.1875 24.8125 -21.1875 24.8125 -19 22 C-18.34 22 -17.68 22 -17 22 C-16.566875 21.13375 -16.566875 21.13375 -16.125 20.25 C-15.75375 19.5075 -15.3825 18.765 -15 18 C-14.690625 17.29875 -14.38125 16.5975 -14.0625 15.875 C-13 14 -13 14 -10 12 C-9.67 11.01 -9.34 10.02 -9 9 C-7.576875 8.071875 -7.576875 8.071875 -6.125 7.125 C-2.95422376 4.96887216 -1.68891137 3.37782273 0 0 Z " fill="#BF805C" transform="translate(184,208)"/>
<path d="M0 0 C1.69226072 3.38452144 0.01803384 6.55794485 -0.9765625 10.06640625 C-2.19598298 13.561768 -3.89438249 16.49185726 -5.79296875 19.65234375 C-7.95396553 23.85544752 -8.94589924 28.41509018 -10 33 C-8.02 33.33 -6.04 33.66 -4 34 C-4 34.66 -4 35.32 -4 36 C-2.68 36 -1.36 36 0 36 C0 36.66 0 37.32 0 38 C-2.64 37.34 -5.28 36.68 -8 36 C-8 35.34 -8 34.68 -8 34 C-9.65 33.67 -11.3 33.34 -13 33 C-11.56831342 24.52001027 -7.88483334 16.3754946 -3.9140625 8.7890625 C-2.45062319 5.92472403 -1.23673391 2.96816138 0 0 Z " fill="#AD7A5D" transform="translate(184,246)"/>
<path d="M0 0 C2.475 0.495 2.475 0.495 5 1 C5.33 1.99 5.66 2.98 6 4 C4.02 4 2.04 4 0 4 C-0.35771484 5.08087891 -0.35771484 5.08087891 -0.72265625 6.18359375 C-2.19293837 9.42540845 -4.00228105 11.47532979 -6.4375 14.0625 C-9.69381955 17.53690605 -9.69381955 17.53690605 -12.6484375 21.26171875 C-14.28963582 23.3725085 -15.4002161 23.64140912 -18 24 C-18 23.34 -18 22.68 -18 22 C-17.071875 21.87625 -17.071875 21.87625 -16.125 21.75 C-13.87299511 21.22241339 -13.87299511 21.22241339 -13.07421875 19.2890625 C-12.71972656 18.53367187 -12.36523438 17.77828125 -12 17 C-8.39224555 10.98404673 -4.67354297 5.24003303 0 0 Z " fill="#DB7E42" transform="translate(201,105)"/>
<path d="M0 0 C-2.79973575 1.56308117 -4.93450693 2.24324489 -8.125 2.4375 C-11.50825662 2.7455689 -14.46230224 3.37483188 -17.6875 4.4375 C-26.48076255 7.23597981 -35.78920787 8.36843169 -45 8 C-38.40395779 4.32351746 -30.43979742 3.66934234 -23 4 C-23 3.34 -23 2.68 -23 2 C-20.10452736 1.66324721 -17.20868928 1.33048266 -14.3125 1 C-13.49587891 0.90460938 -12.67925781 0.80921875 -11.83789062 0.7109375 C-7.87139948 0.26129478 -3.99997537 -0.13034543 0 0 Z " fill="#A27158" transform="translate(245,169)"/>
<path d="M0 0 C-2.35953094 2.35953094 -3.77895617 2.49141413 -7 3 C-7 3.66 -7 4.32 -7 5 C-7.92619141 5.09087891 -7.92619141 5.09087891 -8.87109375 5.18359375 C-10.14146484 5.30927734 -10.14146484 5.30927734 -11.4375 5.4375 C-12.35917969 5.52773438 -13.28085938 5.61796875 -14.23046875 5.7109375 C-15.88116553 5.88322461 -17.53057355 6.07048913 -19.17578125 6.2890625 C-37.45238797 8.69840802 -37.45238797 8.69840802 -43 5 C-42.11441406 5.03480469 -41.22882813 5.06960938 -40.31640625 5.10546875 C-32.98054602 5.26577371 -26.04649517 4.91120073 -18.8125 3.625 C-17.73560913 3.43587036 -17.73560913 3.43587036 -16.63696289 3.24291992 C-10.48879792 2.0720148 -6.39431395 -0.24593515 0 0 Z " fill="#D87F48" transform="translate(236,278)"/>
<path d="M0 0 C-0.1875 1.875 -0.1875 1.875 -1 4 C-2.64551962 4.71727778 -4.31422289 5.38325228 -6 6 C-6.99 7.485 -6.99 7.485 -8 9 C-8.99 9 -9.98 9 -11 9 C-11.33 9.99 -11.66 10.98 -12 12 C-13.375 13.6875 -13.375 13.6875 -15 15 C-15.99 15 -16.98 15 -18 15 C-18 19.95 -18 24.9 -18 30 C-18.33 30 -18.66 30 -19 30 C-19 24.72 -19 19.44 -19 14 C-18.01 13.67 -17.02 13.34 -16 13 C-15.67 12.01 -15.34 11.02 -15 10 C-12.88794553 8.17529988 -10.78998471 6.48251795 -8.5625 4.8125 C-7.96373047 4.34908203 -7.36496094 3.88566406 -6.74804688 3.40820312 C-2.26568253 0 -2.26568253 0 0 0 Z " fill="#9E6E50" transform="translate(152,200)"/>
<path d="M0 0 C-1.16591483 3.14797005 -2.26552319 4.20467413 -5 6.3125 C-8.55122662 9.08418907 -9.14789423 11.65426059 -10 16 C-10.99 16 -11.98 16 -13 16 C-13 17.65 -13 19.3 -13 21 C-13.66 21 -14.32 21 -15 21 C-15.44896919 15.8406591 -14.42660994 13.46190953 -11.3125 9.375 C-10.62800781 8.45460937 -9.94351563 7.53421875 -9.23828125 6.5859375 C-3.53776435 0 -3.53776435 0 0 0 Z " fill="#B87952" transform="translate(170,147)"/>
<path d="M0 0 C0.79921875 0.00902344 1.5984375 0.01804688 2.421875 0.02734375 C3.02515625 0.03894531 3.6284375 0.05054688 4.25 0.0625 C4.25 0.7225 4.25 1.3825 4.25 2.0625 C5.9 2.3925 7.55 2.7225 9.25 3.0625 C9.25 3.3925 9.25 3.7225 9.25 4.0625 C7.18918639 4.56940584 5.12626474 5.06774619 3.0625 5.5625 C1.33966797 5.98015625 1.33966797 5.98015625 -0.41796875 6.40625 C-3.31818829 6.97745385 -5.81096385 7.19533779 -8.75 7.0625 C-7.43 6.7325 -6.11 6.4025 -4.75 6.0625 C-4.75 5.0725 -4.75 4.0825 -4.75 3.0625 C-6.07 2.4025 -7.39 1.7425 -8.75 1.0625 C-5.75519083 0.1901588 -3.11424089 -0.04579766 0 0 Z " fill="#2B2223" transform="translate(253.75,178.9375)"/>
<path d="M0 0 C0.99 0.33 1.98 0.66 3 1 C-11.88453159 15 -11.88453159 15 -17 15 C-16.67 13.35 -16.34 11.7 -16 10 C-15.0925 9.71125 -14.185 9.4225 -13.25 9.125 C-7.84754623 7.25491985 -4.98188529 5.19712233 -1 1 C-0.67 0.67 -0.34 0.34 0 0 Z " fill="#B77F5F" transform="translate(253,263)"/>
<path d="M0 0 C0 0.66 0 1.32 0 2 C-4.89154337 3.20516286 -9.80275122 3.33461434 -14.8125 3.5625 C-15.69615234 3.60568359 -16.57980469 3.64886719 -17.49023438 3.69335938 C-19.65999623 3.79891536 -21.8299791 3.89991071 -24 4 C-18.75448739 -1.24551261 -7.0767783 -0.23989079 0 0 Z " fill="#CC875B" transform="translate(254,169)"/>
<path d="M0 0 C0 3 0 3 -2.5546875 5.91796875 C-3.65369246 7.01564319 -4.76084093 8.10521047 -5.875 9.1875 C-6.43058594 9.74630859 -6.98617187 10.30511719 -7.55859375 10.88085938 C-11.73305861 15 -11.73305861 15 -14 15 C-13.67 14.01 -13.34 13.02 -13 12 C-12.34 12 -11.68 12 -11 12 C-10.76539062 11.42765625 -10.53078125 10.8553125 -10.2890625 10.265625 C-8.70593415 7.48315699 -6.8008475 5.82929786 -4.375 3.75 C-3.55773437 3.04359375 -2.74046875 2.3371875 -1.8984375 1.609375 C-1.27195312 1.07828125 -0.64546875 0.5471875 0 0 Z " fill="#C8C9CC" transform="translate(97,88)"/>
<path d="M0 0 C1 2 1 2 0.6875 4.0625 C0 6 0 6 -2 7 C-2.33 7.99 -2.66 8.98 -3 10 C-1.02 9.67 0.96 9.34 3 9 C3 9.66 3 10.32 3 11 C0.03 11.66 -2.94 12.32 -6 13 C-3 3.28571429 -3 3.28571429 0 0 Z " fill="#BD8563" transform="translate(155,163)"/>
<path d="M0 0 C1.16536852 3.49610557 0.60298755 4.93362144 -0.91015625 8.2109375 C-2.8000368 11.31332206 -4.97818454 12.98545636 -8 15 C-8.99 14.67 -9.98 14.34 -11 14 C-10.37351563 13.32453125 -9.74703125 12.6490625 -9.1015625 11.953125 C-8.28429687 11.06109375 -7.46703125 10.1690625 -6.625 9.25 C-5.81289063 8.36828125 -5.00078125 7.4865625 -4.1640625 6.578125 C-2.3374152 4.40197479 -1.10212006 2.59179881 0 0 Z " fill="#31221E" transform="translate(262,254)"/>
<path d="M0 0 C-2.42130331 2.42130331 -3.80111377 2.52840504 -7.125 3.125 C-8.03507813 3.29257813 -8.94515625 3.46015625 -9.8828125 3.6328125 C-10.58148438 3.75398437 -11.28015625 3.87515625 -12 4 C-12 3.01 -12 2.02 -12 1 C-7.58774263 -0.47075246 -4.51718381 -1.36884358 0 0 Z " fill="#B37753" transform="translate(245,180)"/>
<path d="M0 0 C1 2 1 2 0.0625 5.125 C-0.288125 6.07375 -0.63875 7.0225 -1 8 C-1.66 8 -2.32 8 -3 8 C-3.33 8.99 -3.66 9.98 -4 11 C-6.5625 12.1875 -6.5625 12.1875 -9 13 C-6.09700957 8.59175527 -3.08418637 4.28359219 0 0 Z " fill="#AF7959" transform="translate(174,136)"/>
<path d="M0 0 C-6.625 3 -6.625 3 -10 3 C-10 3.66 -10 4.32 -10 5 C-14.455 5.495 -14.455 5.495 -19 6 C-16 4 -16 4 -13 4 C-13 3.34 -13 2.68 -13 2 C-11.21089097 1.47044766 -9.41860852 0.9516063 -7.625 0.4375 C-6.62726563 0.14746094 -5.62953125 -0.14257812 -4.6015625 -0.44140625 C-2 -1 -2 -1 0 0 Z " fill="#7C7D82" transform="translate(263,336)"/>
<path d="M0 0 C0.66 0.33 1.32 0.66 2 1 C1.34 2.32 0.68 3.64 0 5 C-0.66 5 -1.32 5 -2 5 C-2.2475 5.9075 -2.495 6.815 -2.75 7.75 C-4.03981342 11.10351489 -5.31971042 12.67708236 -8 15 C-8 13.68 -8 12.36 -8 11 C-7.34 11 -6.68 11 -6 11 C-5.67 9.35 -5.34 7.7 -5 6 C-4.34 6 -3.68 6 -3 6 C-2.814375 5.071875 -2.814375 5.071875 -2.625 4.125 C-2 2 -2 2 0 0 Z " fill="#C48761" transform="translate(159,239)"/>
<path d="M0 0 C0.66 0.33 1.32 0.66 2 1 C-0.97 4.63 -3.94 8.26 -7 12 C-7.33 10.68 -7.66 9.36 -8 8 C-7.01 7.67 -6.02 7.34 -5 7 C-4.7834375 6.071875 -4.7834375 6.071875 -4.5625 5.125 C-3.8127546 2.2926285 -2.40269349 1.55012483 0 0 Z " fill="#261918" transform="translate(175,133)"/>
<path d="M0 0 C0.33 0.66 0.66 1.32 1 2 C0.34 2 -0.32 2 -1 2 C-1.33 3.32 -1.66 4.64 -2 6 C-4.97 6.66 -7.94 7.32 -11 8 C-7.61831569 4.31993178 -4.57478244 2.0214155 0 0 Z " fill="#B37C5D" transform="translate(163,192)"/>
<path d="M0 0 C1.65 0.33 3.3 0.66 5 1 C5.33 1.99 5.66 2.98 6 4 C4.63875 3.87625 4.63875 3.87625 3.25 3.75 C-0.10041408 3.68975201 -0.10041408 3.68975201 -2.375 6 C-2.91125 6.66 -3.4475 7.32 -4 8 C-4.66 7.67 -5.32 7.34 -6 7 C-4.02 4.69 -2.04 2.38 0 0 Z " fill="#B37D5F" transform="translate(201,105)"/>
<path d="M0 0 C2.31 0 4.62 0 7 0 C4.64046906 2.35953094 3.22104383 2.49141413 0 3 C0 3.66 0 4.32 0 5 C-1.98 5.33 -3.96 5.66 -6 6 C-6 5.34 -6 4.68 -6 4 C-4.35 3.67 -2.7 3.34 -1 3 C-0.67 2.01 -0.34 1.02 0 0 Z " fill="#BA7E5A" transform="translate(229,278)"/>
<path d="M0 0 C3.95646959 2.08813673 6.54814337 4.22791287 9 8 C8.67 8.99 8.34 9.98 8 11 C7.566875 10.360625 7.13375 9.72125 6.6875 9.0625 C5.08760823 6.73253997 5.08760823 6.73253997 2 6 C0.8125 2.9375 0.8125 2.9375 0 0 Z " fill="#C2825B" transform="translate(226,131)"/>
<path d="M0 0 C0 3 0 3 -1 5 C-1.66 5 -2.32 5 -3 5 C-3.33 5.99 -3.66 6.98 -4 8 C-4.66 8 -5.32 8 -6 8 C-6 8.66 -6 9.32 -6 10 C-6.66 9.67 -7.32 9.34 -8 9 C-5.89851796 5.01824456 -3.63094642 2.64960955 0 0 Z " fill="#C3845E" transform="translate(182,129)"/>
<path d="M0 0 C0.33 0 0.66 0 1 0 C1.06058594 0.71285156 1.12117187 1.42570313 1.18359375 2.16015625 C1.64808101 7.46960288 2.18075251 12.733409 3 18 C2.34 18 1.68 18 1 18 C-0.2062252 14.38132441 -0.10816918 11.07493749 -0.0625 7.3125 C-0.05798828 6.61060547 -0.05347656 5.90871094 -0.04882812 5.18554688 C-0.03706927 3.45699462 -0.01913454 1.72848635 0 0 Z " fill="#D08F66" transform="translate(134,215)"/>
<path d="M0 0 C0.33 0.99 0.66 1.98 1 3 C-3.296875 7.00390625 -3.296875 7.00390625 -5 8 C-6.32 7.67 -7.64 7.34 -9 7 C-6.03 4.69 -3.06 2.38 0 0 Z " fill="#AE7755" transform="translate(224,199)"/>
<path d="M0 0 C0.66 0 1.32 0 2 0 C2.33 2.31 2.66 4.62 3 7 C3.66 7 4.32 7 5 7 C4.67 8.98 4.34 10.96 4 13 C1.99706653 9.99559979 1.50728374 8.29006055 0.875 4.8125 C0.70742187 3.91144531 0.53984375 3.01039063 0.3671875 2.08203125 C0.24601563 1.39496094 0.12484375 0.70789063 0 0 Z " fill="#AE7758" transform="translate(135,233)"/>
<path d="M0 0 C1.32 0.66 2.64 1.32 4 2 C4 2.66 4 3.32 4 4 C0.37 4 -3.26 4 -7 4 C-7 3.34 -7 2.68 -7 2 C-4.69 2 -2.38 2 0 2 C0 1.34 0 0.68 0 0 Z " fill="#AC816A" transform="translate(247,159)"/>
<path d="M0 0 C4.13937592 3.30015998 7.58662205 6.17324411 10 11 C9.01 10.67 8.02 10.34 7 10 C7 9.34 7 8.68 7 8 C6.01 7.67 5.02 7.34 4 7 C2.66666667 5.66666667 1.33333333 4.33333333 0 3 C0 2.01 0 1.02 0 0 Z " fill="#BB815E" transform="translate(208,109)"/>
<path d="M0 0 C0.66 0 1.32 0 2 0 C2.375 2.1875 2.375 2.1875 2 5 C0.16038352 6.99022836 -1.79186148 8.38989899 -4 10 C-4 5.75354935 -2.18249194 3.61475228 0 0 Z " fill="#3B2A28" transform="translate(157,244)"/>
<path d="M0 0 C0.33 0.66 0.66 1.32 1 2 C-0.0625 5 -0.0625 5 -2 8 C-5.1875 9.375 -5.1875 9.375 -8 10 C-7.67 9.01 -7.34 8.02 -7 7 C-6.01 6.67 -5.02 6.34 -4 6 C-3.29788106 4.34795544 -2.63028587 2.68076231 -2 1 C-1.34 0.67 -0.68 0.34 0 0 Z " fill="#CC8254" transform="translate(259,255)"/>
<path d="M0 0 C0.66 0.99 1.32 1.98 2 3 C0.75 5.9375 0.75 5.9375 -1 9 C-3.1875 9.875 -3.1875 9.875 -5 10 C-3.66511872 6.40608886 -2.03977277 3.24509304 0 0 Z " fill="#AB7757" transform="translate(193,230)"/>
<path d="M0 0 C0.33 0.66 0.66 1.32 1 2 C0.01 2.495 0.01 2.495 -1 3 C-1.33 3.99 -1.66 4.98 -2 6 C-3.87617698 7.84499398 -5.92737609 9.3683599 -8 11 C-6.68206814 5.33289301 -4.51290803 3.33562767 0 0 Z " fill="#C28662" transform="translate(202,221)"/>
<path d="M0 0 C-0.639375 0.103125 -1.27875 0.20625 -1.9375 0.3125 C-2.618125 0.539375 -3.29875 0.76625 -4 1 C-4.33 1.99 -4.66 2.98 -5 4 C-7.31 4.33 -9.62 4.66 -12 5 C-3.89473684 -1.94736842 -3.89473684 -1.94736842 0 0 Z " fill="#392724" transform="translate(223,189)"/>
<path d="M0 0 C0.33 0.99 0.66 1.98 1 3 C-0.28965176 4.37562854 -1.62689293 5.70766393 -3 7 C-3.66 7 -4.32 7 -5 7 C-5 7.66 -5 8.32 -5 9 C-5.66 8.67 -6.32 8.34 -7 8 C-5.08864614 4.46399535 -3.37357234 2.21027154 0 0 Z " fill="#D7834F" transform="translate(199,110)"/>
<path d="M0 0 C0.33 1.32 0.66 2.64 1 4 C0.01 4.66 -0.98 5.32 -2 6 C-3.19232613 8.05003955 -3.19232613 8.05003955 -4 10 C-4.66 9.34 -5.32 8.68 -6 8 C-4.02 5.36 -2.04 2.72 0 0 Z " fill="#342521" transform="translate(165,234)"/>
<path d="M0 0 C-1.60149886 0.67305018 -3.20631029 1.33822227 -4.8125 2 C-6.15248047 2.556875 -6.15248047 2.556875 -7.51953125 3.125 C-10 4 -10 4 -13 4 C-12.34 2.68 -11.68 1.36 -11 0 C-11 0.66 -11 1.32 -11 2 C-10.37351563 1.77183594 -9.74703125 1.54367188 -9.1015625 1.30859375 C-7.87566406 0.87740234 -7.87566406 0.87740234 -6.625 0.4375 C-5.81289062 0.14746094 -5.00078125 -0.14257812 -4.1640625 -0.44140625 C-2 -1 -2 -1 0 0 Z " fill="#534039" transform="translate(160,174)"/>
<path d="M0 0 C-1.49097658 3.7952131 -3.75700849 5.61042731 -7 8 C-4.73913043 0 -4.73913043 0 0 0 Z " fill="#D58451" transform="translate(170,147)"/>
<path d="M0 0 C-0.1875 1.875 -0.1875 1.875 -1 4 C-3.4375 5.1875 -3.4375 5.1875 -6 6 C-6.99 6.495 -6.99 6.495 -8 7 C-6.47663111 3.31852519 -4.31953005 0 0 0 Z " fill="#B27B5C" transform="translate(152,200)"/>
<path d="M0 0 C2.31 0 4.62 0 7 0 C7.66 1.65 8.32 3.3 9 5 C8.34 5 7.68 5 7 5 C7 4.34 7 3.68 7 3 C4.69 2.67 2.38 2.34 0 2 C0 1.34 0 0.68 0 0 Z " fill="#AF7C60" transform="translate(257,183)"/>
<path d="M0 0 C-0.66 0 -1.32 0 -2 0 C-2 0.66 -2 1.32 -2 2 C-3.98 2.66 -5.96 3.32 -8 4 C-8 3.01 -8 2.02 -8 1 C-4.93251126 -0.86240388 -3.40254489 -1.2151946 0 0 Z " fill="#32221F" transform="translate(238,191)"/>
<path d="M0 0 C0.33 0.66 0.66 1.32 1 2 C-1.70879335 3.35439668 -4.00933268 3.06501451 -7 3 C-7 2.34 -7 1.68 -7 1 C-4.53721199 -0.231394 -2.7204945 -0.07159196 0 0 Z " fill="#CF8456" transform="translate(232,182)"/>
<path d="M0 0 C2.61527381 2.36620011 4.26440562 4.942048 6 8 C4.35 7.67 2.7 7.34 1 7 C0.67 4.69 0.34 2.38 0 0 Z " fill="#DA7E45" transform="translate(230,137)"/>
<path d="M0 0 C1.65 0 3.3 0 5 0 C4.01 0.495 4.01 0.495 3 1 C1.86649466 3.01669827 1.86649466 3.01669827 1 5 C0.34 5 -0.32 5 -1 5 C-0.67 3.35 -0.34 1.7 0 0 Z " fill="#CC8253" transform="translate(237,273)"/>
<path d="M0 0 C0.33 0.66 0.66 1.32 1 2 C-0.98 4.97 -0.98 4.97 -3 8 C-3.99 7.67 -4.98 7.34 -6 7 C-4.02 4.69 -2.04 2.38 0 0 Z " fill="#382927" transform="translate(172,225)"/>
<path d="M0 0 C0 0.99 0 1.98 0 3 C-0.66 3 -1.32 3 -2 3 C-2 3.66 -2 4.32 -2 5 C-3.65 5.66 -5.3 6.32 -7 7 C-5.54744301 3.17053157 -3.57104439 1.87949705 0 0 Z " fill="#BA815E" transform="translate(232,194)"/>
</svg>
